<svg viewBox="0 0 1414 679" fill="none" xmlns="http://www.w3.org/2000/svg">
  <path d="M707.411 -333.708V369.072M707.411 369.072L707.411 373.037M707.411 369.072L706.655 372.968M707.411 369.072L841.383 -320.82M707.411 373.037V373.08M707.411 373.037L968.715 -283.472M707.411 373.037L707.371 373.139M707.411 373.08V373.121M707.411 373.08L1105.43 -210.702M707.411 373.08L707.371 373.139M707.411 373.121V373.164M707.411 373.121L1206.99 -126.462M707.411 373.121L707.356 373.176M707.411 373.164V373.211M707.411 373.164L1293.03 -21.9957M707.411 373.164L707.342 373.211M707.411 373.211V373.276M707.411 373.211L1356.24 93.8272M707.411 373.211L707.327 373.247M707.411 373.276V373.339M707.411 373.276L1401.46 241.96M707.411 373.276L707.308 373.296M707.411 373.339V373.421M707.411 373.339L1413.71 373.339M707.411 373.339H707.291M707.411 373.421V373.518M707.411 373.421L1400.68 508.048M707.411 373.421L707.269 373.394M707.411 373.518V373.674M707.411 373.518L1363.47 634.643M707.411 373.518L707.246 373.452M707.411 373.674V373.87M707.411 373.674L1290.7 771.361M707.411 373.674L707.212 373.538M707.411 373.87V374.192M707.411 373.87L1206.46 872.922M707.411 373.87L707.174 373.633M707.411 374.192V374.779M707.411 374.192L1102 958.959M707.411 374.192L707.122 373.763M707.411 374.779V376.967M707.411 374.779L986.174 1022.17M707.411 374.779L707.051 373.942M707.411 376.967V1079.64M707.411 376.967L838.041 1067.39M707.411 376.967L706.907 374.303M707.291 373.339H707.235M707.291 373.339L707.308 373.296M707.291 373.339L707.269 373.394M707.235 373.339H707.193M707.235 373.339L707.257 373.305M707.235 373.339L707.206 373.381M707.193 373.339H707.153M707.193 373.339L707.22 373.312M707.193 373.339L707.16 373.372M707.153 373.339H707.115M707.153 373.339L707.181 373.32M707.153 373.339L707.116 373.364M707.115 373.339H707.08M707.115 373.339L707.143 373.327M707.115 373.339L707.075 373.356M707.08 373.339H706.987M707.08 373.339L707.143 373.327M707.08 373.339L707.033 373.348M706.987 373.339H706.961M706.987 373.339L707.033 373.348M706.987 373.339L706.937 373.329M706.961 373.339H706.919M706.961 373.339L707 373.354M706.961 373.339L706.937 373.329M706.919 373.339H706.88M706.919 373.339L706.954 373.363M706.919 373.339L706.892 373.32M706.88 373.339H706.836M706.88 373.339L706.912 373.371M706.88 373.339L706.854 373.313M706.836 373.339H706.791M706.836 373.339L706.863 373.38M706.836 373.339L706.813 373.305M706.791 373.339H706.725M706.791 373.339L706.813 373.389M706.791 373.339L706.773 373.297M706.725 373.339H706.583M706.725 373.339L706.737 373.404M706.725 373.339L706.715 373.286M706.583 373.339L0.363312 373.339M706.583 373.339L706.564 373.437M706.583 373.339L706.597 373.263M707.356 373.176L707.323 373.209M707.356 373.176L707.371 373.139M707.356 373.176L707.342 373.211M707.323 373.209L707.278 373.254M707.323 373.209L707.371 373.139M707.323 373.209L707.304 373.236M707.278 373.254L707.252 373.28M707.278 373.254L707.304 373.236M707.278 373.254L707.218 373.295M707.252 373.28L707.22 373.312M707.252 373.28L707.284 373.266M707.252 373.28L707.218 373.295M707.22 373.312L707.257 373.305M707.22 373.312L707.181 373.32M707.16 373.372L707.127 373.405M707.16 373.372L707.206 373.381M707.16 373.372L707.116 373.364M707.127 373.405L707.082 373.45M707.127 373.405L707.176 373.424M707.127 373.405L707.082 373.387M707.082 373.45L707.037 373.495M707.082 373.45L707.134 373.486M707.082 373.45L707.035 373.418M707.037 373.495L706.98 373.552M707.037 373.495L707.091 373.549M707.037 373.495L706.99 373.449M706.98 373.552L706.912 373.62M706.98 373.552L707.034 373.633M706.98 373.552L706.935 373.486M706.912 373.62L706.799 373.733M706.912 373.62L706.963 373.737M706.912 373.62L706.872 373.528M706.799 373.733L706.436 374.097M706.799 373.733L706.835 373.924M706.799 373.733L706.773 373.595M706.436 374.097L207.608 872.924M706.436 374.097L706.323 374.676M706.436 374.097L706.497 373.781M707.174 373.633L707.091 373.549M707.174 373.633L707.212 373.538M707.174 373.633L707.122 373.763M707.091 373.549L707.134 373.486M707.091 373.549L707.034 373.633M706.99 373.449L706.951 373.41M706.99 373.449L707.035 373.418M706.99 373.449L706.935 373.486M706.951 373.41L706.912 373.371M706.951 373.41L706.995 373.391M706.951 373.41L706.899 373.432M706.912 373.371L706.954 373.363M706.912 373.371L706.863 373.38M706.854 373.313L706.826 373.285M706.854 373.313L706.892 373.32M706.854 373.313L706.813 373.305M706.826 373.285L706.796 373.255M706.826 373.285L706.86 373.299M706.826 373.285L706.79 373.27M706.796 373.255L706.744 373.202M706.796 373.255L706.86 373.299M706.796 373.255L706.765 373.233M706.744 373.202L706.724 373.182M706.744 373.202L706.765 373.233M706.744 373.202L706.712 373.156M706.724 373.182L706.689 373.147M706.724 373.182L706.738 373.215M706.724 373.182L706.712 373.156M706.689 373.147L706.631 373.09M706.689 373.147L706.696 373.187M706.689 373.147L706.681 373.11M706.631 373.09L207.078 -126.464M706.631 373.09L706.622 373.136M706.631 373.09L706.639 373.048M707.342 373.211L707.327 373.247M707.342 373.211L707.304 373.236M707.327 373.247L707.308 373.296M707.327 373.247L707.284 373.266M707.308 373.296L707.257 373.305M707.269 373.394L707.246 373.452M707.269 373.394L707.206 373.381M707.246 373.452L707.212 373.538M707.246 373.452L707.176 373.424M707.212 373.538L707.134 373.486M707.122 373.763L707.051 373.942M707.122 373.763L707.034 373.633M707.051 373.942L706.907 374.303M707.051 373.942L706.963 373.737M706.907 374.303L705.908 376.815M706.907 374.303L706.835 373.924M705.908 376.815L446.054 1029.68M705.908 376.815L571.955 1066.61M705.908 376.815L706.323 374.676M707.176 373.424L707.206 373.381M707.176 373.424L707.134 373.486M707.082 373.387L707.041 373.371M707.082 373.387L707.116 373.364M707.082 373.387L707.035 373.418M707.041 373.371L707 373.354M707.041 373.371L707.075 373.356M707.041 373.371L706.995 373.391M707 373.354L707.033 373.348M707 373.354L706.954 373.363M706.937 373.329L706.86 373.299M706.937 373.329L706.892 373.32M706.86 373.299L706.892 373.32M706.79 373.27L706.756 373.257M706.79 373.27L706.813 373.305M706.79 373.27L706.765 373.233M706.756 373.257L706.705 373.237M706.756 373.257L706.773 373.297M706.756 373.257L706.738 373.215M706.705 373.237L706.61 373.199M706.705 373.237L706.715 373.286M706.705 373.237L706.696 373.187M706.61 373.199L50.3196 111.983M706.61 373.199L706.597 373.263M706.61 373.199L706.622 373.136M707.284 373.266L707.304 373.236M707.284 373.266L707.257 373.305M707.218 373.295L707.143 373.327M707.218 373.295L707.181 373.32M707.143 373.327L707.181 373.32M707.075 373.356L707.116 373.364M707.075 373.356L707.033 373.348M706.995 373.391L707.035 373.418M706.995 373.391L706.954 373.363M706.899 373.432L706.842 373.457M706.899 373.432L706.935 373.486M706.899 373.432L706.863 373.38M706.842 373.457L706.754 373.494M706.842 373.457L706.872 373.528M706.842 373.457L706.813 373.389M706.754 373.494L706.534 373.589M706.754 373.494L706.773 373.595M706.754 373.494L706.737 373.404M706.534 373.589L58.1275 652.79M706.534 373.589L706.497 373.781M706.534 373.589L706.564 373.437M706.963 373.737L707.034 373.633M706.963 373.737L706.835 373.924M706.872 373.528L706.935 373.486M706.872 373.528L706.773 373.595M706.813 373.389L706.863 373.38M706.813 373.389L706.737 373.404M706.773 373.297L706.813 373.305M706.773 373.297L706.715 373.286M706.738 373.215L706.765 373.233M706.738 373.215L706.696 373.187M706.712 373.156L706.673 373.064M706.712 373.156L706.681 373.11M706.673 373.064L706.647 373.005M706.673 373.064L706.681 373.11M706.673 373.064L706.655 372.968M706.647 373.005L427.212 -275.947M706.647 373.005L706.639 373.048M706.647 373.005L706.655 372.968M706.835 373.924L706.323 374.676M706.323 374.676L309.259 957.053M706.696 373.187L706.622 373.136M706.622 373.136L122.947 -24.8129M706.737 373.404L706.564 373.437M706.564 373.437L12.7513 504.708M706.773 373.595L706.497 373.781M706.715 373.286L706.597 373.263M706.681 373.11L706.639 373.048M706.655 372.968L575.293 -321.32M706.497 373.781L121.458 768.549M706.639 373.048L311.451 -212.614M706.597 373.263L13.2515 238.621" stroke="#FBF5EE" stroke-width="0.750717" />
</svg>