<svg width="10" height="6" viewBox="0 0 10 6" fill="none" xmlns="http://www.w3.org/2000/svg">
<path d="M6.79565 1.06205C7.05684 0.800857 7.48068 0.800966 7.74194 1.06205L9.31909 2.6392C9.58011 2.90046 9.58026 3.32431 9.31909 3.58549C9.31746 3.58712 9.31487 3.58778 9.31323 3.58939L7.74194 5.16166C7.48069 5.42287 7.05689 5.42289 6.79565 5.16166C6.53466 4.9004 6.53452 4.47654 6.79565 4.21537L7.89917 3.11185L6.79565 2.00834C6.53461 1.74712 6.53457 1.32325 6.79565 1.06205Z" fill="#222222"/>
<path d="M3.45153 1.06195C3.19036 0.801228 2.76735 0.801188 2.50621 1.06195L0.929065 2.6391L0.843128 2.74359C0.671558 3.00327 0.700424 3.35675 0.929065 3.58539L2.50621 5.16156C2.76744 5.42279 3.19028 5.42274 3.45153 5.16156C3.71277 4.90031 3.71277 4.47749 3.45153 4.21625L2.34899 3.11176L3.45153 2.00824C3.71277 1.74699 3.71277 1.3232 3.45153 1.06195Z" fill="#222222"/>
</svg>
