<svg width="32" height="32" viewBox="0 0 32 32" fill="none" xmlns="http://www.w3.org/2000/svg">
<rect width="32" height="32" rx="16" fill="white"/>
<rect x="10.9163" y="20" width="11" height="3" rx="1.5" fill="#181F53"/>
<rect x="11.9163" y="9.00001" width="9" height="3" rx="1.5" fill="#8ABF21"/>
<rect x="12.9163" y="25" width="7" height="3" rx="1.5" fill="#8ABF21"/>
<path d="M18.2547 4.00058C21.9418 4.04902 24.9163 7.16422 24.9163 11C24.9163 14.8358 21.9418 17.951 18.2547 17.9994L18.1674 18H9.22006C8.50002 18 7.91631 17.3946 7.91631 16.6477C7.91631 15.9009 8.50002 15.2955 9.22006 15.2955H18.1674C20.4546 15.2955 22.3088 13.3723 22.3088 11C22.3088 8.62769 20.4546 6.70455 18.1674 6.70455H11.7765C11.0564 6.70455 10.4727 6.09912 10.4727 5.35228C10.4727 4.60544 11.0564 4.00001 11.7765 4.00001L18.1674 4.00001L18.2547 4.00058Z" fill="#181F53"/>
</svg>
