<svg width="139" height="36" viewBox="0 0 139 36" fill="none" xmlns="http://www.w3.org/2000/svg">
<rect x="0.0380554" y="24.2198" width="17.2127" height="3.96045" rx="1.98022" fill="#181F53"/>
<rect x="3.77005" y="8.07325" width="13.4807" height="3.96045" rx="1.98022" fill="#8ABF21"/>
<rect x="3.77005" y="31.5312" width="9.97728" height="3.96045" rx="1.98022" fill="#8ABF21"/>
<path d="M15.4005 0.000818151C20.893 0.0703874 25.324 4.54445 25.324 10.0534C25.324 15.5624 20.893 20.0365 15.4005 20.1061L15.2706 20.1069H1.94217C0.869557 20.1069 3.05176e-05 19.2374 3.05176e-05 18.1647C3.05176e-05 17.0921 0.869557 16.2226 1.94217 16.2226H15.2706C18.6777 16.2226 21.4397 13.4606 21.4397 10.0534C21.4397 6.64631 18.6777 3.88428 15.2706 3.88428H5.75029C4.67768 3.88428 3.80815 3.01476 3.80815 1.94214C3.80815 0.869526 4.67768 0 5.75029 0L15.2706 0L15.4005 0.000818151Z" fill="#181F53"/>
<path d="M67.6599 10.8761C68.166 10.8761 68.565 11.0133 68.8569 11.2858C69.1682 11.5388 69.353 11.879 69.4115 12.307C69.4894 12.7353 69.4124 13.2033 69.1788 13.7095L62.3149 29.2755C62.0229 29.9374 61.692 30.385 61.3221 30.6186C60.9717 30.8522 60.5241 30.9689 59.979 30.9689C59.4728 30.9689 59.0536 30.833 58.7226 30.5604C58.3917 30.2879 58.1968 29.9275 58.1384 29.4798C58.08 29.0515 58.1582 28.5937 58.3723 28.107L59.9271 24.672L55.1601 13.738C54.9655 13.2319 54.8974 12.7649 54.9558 12.3367C55.0337 11.889 55.2479 11.5389 55.5983 11.2858C55.9682 11.0132 56.4746 10.8761 57.1171 10.8761C57.6425 10.8761 58.0609 11.0031 58.3723 11.2561C58.7033 11.4897 59.0058 11.9474 59.2784 12.6289L62.2641 20.2194L65.3526 12.5992C65.6251 11.9375 65.9266 11.4897 66.2574 11.2561C66.6079 11.003 67.0758 10.8761 67.6599 10.8761Z" fill="#181F53"/>
<path fill-rule="evenodd" clip-rule="evenodd" d="M115.052 10.8179C116.299 10.8179 117.39 11.1192 118.324 11.7228C119.278 12.3263 120.018 13.184 120.544 14.2938C121.069 15.4034 121.332 16.7271 121.332 18.2648C121.332 19.8029 121.069 21.1376 120.544 22.2668C120.018 23.3959 119.287 24.2616 118.353 24.8651C117.418 25.4686 116.318 25.7712 115.052 25.7712C113.923 25.7711 112.921 25.498 112.044 24.953C111.425 24.5539 110.951 24.0702 110.614 23.5059V28.721C110.613 29.4606 110.419 30.0148 110.029 30.3847C109.659 30.774 109.124 30.9689 108.424 30.9689C107.703 30.9689 107.148 30.7741 106.759 30.3847C106.389 30.0148 106.204 29.4605 106.204 28.721V13.0955C106.204 12.3754 106.389 11.8302 106.759 11.4603C107.148 11.071 107.684 10.8761 108.366 10.8761C109.086 10.8762 109.631 11.071 110.001 11.4603C110.371 11.8302 110.555 12.3754 110.555 13.0955V13.1946C110.883 12.5999 111.358 12.0989 111.986 11.6943C112.882 11.1102 113.904 10.8179 115.052 10.8179ZM113.739 14.118C113.116 14.118 112.561 14.2642 112.074 14.5562C111.607 14.8482 111.236 15.3059 110.964 15.929C110.691 16.5324 110.555 17.3111 110.555 18.2648C110.555 19.6861 110.848 20.7477 111.432 21.4486C112.016 22.1299 112.785 22.4711 113.739 22.4711C114.362 22.471 114.907 22.3146 115.374 22.0031C115.861 21.6916 116.23 21.2338 116.483 20.6304C116.756 20.0074 116.893 19.2187 116.893 18.2648C116.893 16.8438 116.601 15.8024 116.017 15.1405C115.433 14.4591 114.673 14.1181 113.739 14.118Z" fill="#181F53"/>
<path fill-rule="evenodd" clip-rule="evenodd" d="M83.0168 4.59765C83.62 4.46152 84.1257 4.51026 84.5344 4.74372C84.9432 4.95786 85.2061 5.35674 85.3229 5.94073C85.4397 6.52482 85.3423 7.012 85.0308 7.4014C84.7387 7.79051 84.291 8.04343 83.6877 8.1602L79.833 9.00689C78.8985 9.22106 78.11 9.55309 77.4675 10.0009C76.8251 10.4487 76.3378 11.0129 76.0068 11.6943C75.6759 12.3562 75.5104 13.1448 75.5104 14.0598V14.2839C75.6241 14.0567 75.7499 13.8354 75.8904 13.6216C76.3577 12.9402 76.9706 12.4043 77.7299 12.0149C78.5087 11.606 79.4241 11.4021 80.4755 11.4021L80.9149 11.4158C81.924 11.4776 82.829 11.7549 83.6295 12.2488C84.5445 12.8134 85.2651 13.6213 85.7908 14.6726C86.336 15.7045 86.609 16.9416 86.609 18.3824C86.609 19.8812 86.2973 21.1857 85.6745 22.2953C85.0515 23.4049 84.1845 24.2615 83.075 24.8651C81.9652 25.4686 80.66 25.7712 79.1609 25.7712C77.5842 25.7711 76.2118 25.4594 75.0437 24.8366C73.8756 24.1941 72.9704 23.2492 72.3279 22.0031C71.7049 20.7376 71.3933 19.1799 71.3933 17.3302V15.2568C71.3933 13.31 71.6947 11.6841 72.2982 10.3797C72.9212 9.05584 73.8367 7.99536 75.0437 7.19715C76.2508 6.39896 77.7396 5.80403 79.5112 5.41464L83.0168 4.59765ZM78.9863 14.6726C78.3244 14.6726 77.7499 14.829 77.2632 15.1405C76.796 15.4325 76.4357 15.8608 76.1826 16.4254C75.949 16.9899 75.8323 17.671 75.8323 18.4691C75.8323 19.7735 76.1042 20.7671 76.6492 21.4486C77.1943 22.1299 77.9831 22.471 79.0148 22.4711C79.696 22.4711 80.2707 22.3247 80.7379 22.0328C81.2052 21.7213 81.5564 21.2829 81.7901 20.7182C82.0431 20.1343 82.1688 19.4236 82.1688 18.5867C82.1688 17.3211 81.8868 16.357 81.3222 15.695C80.7771 15.0138 79.9985 14.6726 78.9863 14.6726Z" fill="#181F53"/>
<path fill-rule="evenodd" clip-rule="evenodd" d="M96.7607 10.8265C97.6421 10.8649 98.4495 11.0374 99.1819 11.344C100.019 11.6749 100.74 12.161 101.343 12.8034C101.947 13.4263 102.403 14.1959 102.715 15.1108C103.026 16.0063 103.183 17.0091 103.183 18.1187C103.183 18.4887 103.066 18.772 102.832 18.9667C102.599 19.1419 102.258 19.2291 101.81 19.2291H93.208C93.3396 20.1714 93.6555 20.9013 94.1587 21.4189C94.8596 22.1198 95.8917 22.4711 97.2546 22.4711C97.7217 22.471 98.2568 22.412 98.8601 22.2953C99.4637 22.1785 100.029 21.9938 100.555 21.7407C101.002 21.5267 101.401 21.4586 101.752 21.5365C102.102 21.5949 102.374 21.7503 102.569 22.0031C102.763 22.2562 102.871 22.5486 102.891 22.8795C102.929 23.2104 102.861 23.5414 102.686 23.8723C102.511 24.1838 102.219 24.4467 101.81 24.6608C101.148 25.0307 100.398 25.3038 99.5607 25.479C98.7433 25.6736 97.9452 25.7711 97.1667 25.7712C95.4729 25.7712 94.0125 25.4686 92.7859 24.8651C91.579 24.2421 90.6441 23.3763 89.9822 22.2668C89.3397 21.1376 89.0179 19.8131 89.0179 18.2945C89.0179 16.8149 89.3295 15.5199 89.9525 14.4101C90.5755 13.281 91.4423 12.4052 92.552 11.7822C93.6812 11.1397 94.9569 10.8179 96.3782 10.8179L96.7607 10.8265ZM96.5527 13.738C95.8327 13.738 95.2193 13.9036 94.7133 14.2344C94.2071 14.5653 93.8173 15.0435 93.5447 15.6666C93.3781 16.0475 93.2629 16.4759 93.1981 16.9515H99.5199C99.486 16.3333 99.3743 15.8076 99.1819 15.3744C98.9483 14.8294 98.6071 14.4203 98.1595 14.1477C97.7311 13.8751 97.1952 13.738 96.5527 13.738Z" fill="#181F53"/>
<path fill-rule="evenodd" clip-rule="evenodd" d="M131.377 10.8179C132.915 10.8179 134.249 11.1194 135.378 11.7228C136.527 12.3263 137.413 13.184 138.036 14.2938C138.678 15.4034 139 16.7269 139 18.2648C139 19.433 138.815 20.4753 138.445 21.3904C138.095 22.3054 137.589 23.094 136.927 23.7559C136.265 24.4178 135.457 24.9244 134.503 25.2748C133.568 25.6058 132.526 25.7712 131.377 25.7712C129.839 25.7711 128.496 25.4686 127.347 24.8651C126.218 24.2616 125.342 23.3957 124.719 22.2668C124.096 21.1376 123.784 19.8029 123.784 18.2648C123.784 17.1163 123.96 16.0839 124.31 15.1689C124.661 14.2541 125.167 13.4755 125.829 12.8331C126.511 12.1713 127.319 11.6749 128.253 11.344C129.187 10.9936 130.229 10.8179 131.377 10.8179ZM131.377 14.118C130.754 14.118 130.199 14.2642 129.712 14.5562C129.245 14.8483 128.876 15.3061 128.603 15.929C128.35 16.5325 128.223 17.311 128.223 18.2648C128.223 19.6861 128.516 20.7477 129.1 21.4486C129.684 22.1299 130.443 22.471 131.377 22.4711C132.02 22.4711 132.575 22.3147 133.042 22.0031C133.509 21.6916 133.88 21.2339 134.153 20.6304C134.425 20.0074 134.561 19.2186 134.561 18.2648C134.561 16.8438 134.269 15.8024 133.685 15.1405C133.101 14.459 132.331 14.118 131.377 14.118Z" fill="#181F53"/>
<path fill-rule="evenodd" clip-rule="evenodd" d="M46.1361 4.86008C48.4335 4.8601 50.2054 5.44472 51.4515 6.61288C52.6973 7.76158 53.3206 9.36822 53.3206 11.4319C53.3205 13.4953 52.6973 15.1112 51.4515 16.2793C50.2054 17.4475 48.4335 18.0321 46.1361 18.0321H41.259V23.3759C41.259 24.1158 41.0641 24.6902 40.6747 25.099C40.3048 25.5079 39.7496 25.713 39.0098 25.713C38.2701 25.7129 37.7057 25.5078 37.3164 25.099C36.927 24.6902 36.7321 24.1158 36.7321 23.3759V7.16744C36.7321 6.40812 36.927 5.83374 37.3164 5.44435C37.7252 5.05502 38.2997 4.86008 39.0395 4.86008H46.1361ZM41.259 14.5265H45.3761C46.5442 14.5265 47.4302 14.2636 48.0337 13.738C48.6567 13.2124 48.9682 12.444 48.9683 11.4319C48.9683 10.4194 48.6568 9.65918 48.0337 9.15296C47.5057 8.71034 46.7618 8.46069 45.8019 8.4053L45.3761 8.39416H41.259V14.5265Z" fill="#181F53"/>
</svg>
